<?xml version="1.0" ?><!DOCTYPE svg  PUBLIC '-//W3C//DTD SVG 1.1//EN'  'http://www.w3.org/Graphics/SVG/1.1/DTD/svg11.dtd'><svg enable-background="new 0 0 512 512" height="512px" id="Layer_1" version="1.1" viewBox="0 0 512 512" width="512px" xml:space="preserve" xmlns="http://www.w3.org/2000/svg" xmlns:xlink="http://www.w3.org/1999/xlink"><g><path fill="#dbdbdb" d="M436.766,118.986H328.561c-35.888,0-60.803,23.242-72.561,37.25c-11.758-14.008-36.673-37.25-72.561-37.25H75.234   c-4.971,0-9,4.029-9,9v123.569c0,4.971,4.029,9,9,9s9-4.029,9-9V136.986h99.205c34.811,0,57.916,29.113,63.561,37.041v183.104   c-17.751-14.499-47.124-24.589-87.811-30.11c-31.079-4.217-60.458-4.641-74.955-4.53v-28.268c0-4.971-4.029-9-9-9s-9,4.029-9,9   v37.441v52.35c0,4.971,4.029,9,9,9h180.747c0.005,0,0.009,0.001,0.013,0.001c0.002,0,0.004,0,0.006,0s0.004,0,0.006,0   c0.004,0,0.008-0.001,0.013-0.001h180.747c4.971,0,9-4.029,9-9v-52.35V127.986C445.766,123.016,441.736,118.986,436.766,118.986z    M328.561,136.986h99.205v185.512c-1.13-0.008-2.352-0.013-3.658-0.013c-19.682,0-58.048,1.079-93.86,8.301   c-29.148,5.878-50.961,14.706-65.247,26.37V174.011C270.618,166.059,293.56,136.986,328.561,136.986z M84.234,340.503   c13.91-0.097,42.704,0.306,72.534,4.354c40.69,5.522,69.337,16.03,83.035,30.156H84.234V340.503z M272.068,375.014   c24.054-25.207,91.482-34.528,152.039-34.528c1.313,0,2.53,0.005,3.658,0.014v34.515H272.068z"/><path fill="#dbdbdb" d="M324.742,185.996h63.648c4.971,0,9-4.029,9-9s-4.029-9-9-9h-63.648c-4.971,0-9,4.029-9,9S319.771,185.996,324.742,185.996z   "/><path fill="#dbdbdb" d="M324.742,240.098h63.648c4.971,0,9-4.029,9-9s-4.029-9-9-9h-63.648c-4.971,0-9,4.029-9,9S319.771,240.098,324.742,240.098z   "/><path fill="#dbdbdb" d="M324.742,294.201h63.648c4.971,0,9-4.029,9-9s-4.029-9-9-9h-63.648c-4.971,0-9,4.029-9,9S319.771,294.201,324.742,294.201z   "/><path fill="#dbdbdb" d="M123.607,185.996h63.65c4.971,0,9-4.029,9-9s-4.029-9-9-9h-63.65c-4.971,0-9,4.029-9,9S118.637,185.996,123.607,185.996z"/><path fill="#dbdbdb" d="M123.607,240.098h63.65c4.971,0,9-4.029,9-9s-4.029-9-9-9h-63.65c-4.971,0-9,4.029-9,9S118.637,240.098,123.607,240.098z"/><path fill="#dbdbdb" d="M123.607,294.201h63.65c4.971,0,9-4.029,9-9s-4.029-9-9-9h-63.65c-4.971,0-9,4.029-9,9S118.637,294.201,123.607,294.201z"/></g></svg>