<?xml version="1.0" ?><svg id="Layer_1" style="enable-background:new 0 0 256 256;" version="1.1" viewBox="0 0 256 256" xml:space="preserve" xmlns="http://www.w3.org/2000/svg" xmlns:xlink="http://www.w3.org/1999/xlink"><g><path fill="#dbdbdb" d="M184.4,48.5L184.4,48.5c1.9,9.7,10.4,16.8,20.3,16.8c9.9,0,18.4-7.1,20.3-16.8l2.5-12.7c0.8-6.2-1-12.4-5.1-17.1   s-10-7.4-16.2-7.4h-2.9c-6.2,0-12.1,2.7-16.2,7.4s-6,10.9-5.1,17.4L184.4,48.5z M194.6,25.3c2.2-2.5,5.4-4,8.8-4h2.9   c3.4,0,6.5,1.4,8.8,4c2.2,2.5,3.2,5.9,2.8,8.9l-2.4,12.4c-1,5.1-5.4,8.7-10.6,8.7s-9.6-3.7-10.6-8.7l-2.4-12.1   C191.4,31.2,192.4,27.8,194.6,25.3z"/><path fill="#dbdbdb" d="M251.3,114.4l-5.7-27c-0.7-3.3-3.1-6-6.2-7.1l-19.7-7l-14.8,14.8l-14.8-14.8l-19.7,7c-3.1,1.1-5.5,3.8-6.2,7.1l-5.7,27   c-0.6,2.7,1.1,5.3,3.8,5.9c2.7,0.6,5.3-1.1,5.9-3.8l5.6-26.8l13.8-4.9l17.4,17.4l17.4-17.4l13.6,4.7l5.7,27   c0.5,2.3,2.6,3.9,4.9,3.9c0.3,0,0.7,0,1-0.1C250.1,119.8,251.8,117.1,251.3,114.4z"/><path fill="#dbdbdb" d="M30.9,48.5L30.9,48.5c1.9,9.7,10.4,16.8,20.3,16.8c9.9,0,18.4-7.1,20.3-16.8L74,35.8c0.8-6.2-1-12.4-5.1-17.1   s-10-7.4-16.2-7.4h-2.9c-6.2,0-12.1,2.7-16.2,7.4s-6,10.9-5.1,17.4L30.9,48.5z M41.1,25.3c2.2-2.5,5.4-4,8.8-4h2.9   c3.4,0,6.5,1.4,8.8,4c2.2,2.5,3.2,5.9,2.8,8.9l-2.4,12.4c-1,5.1-5.4,8.7-10.6,8.7s-9.6-3.7-10.6-8.7l-2.4-12.1   C37.8,31.2,38.9,27.8,41.1,25.3z"/><path fill="#dbdbdb" d="M68.7,84.8l13.6,4.7l5.7,27c0.5,2.3,2.6,3.9,4.9,3.9c0.3,0,0.7,0,1-0.1c2.7-0.6,4.4-3.2,3.8-5.9l-5.7-27   c-0.7-3.3-3.1-6-6.2-7.1l-19.7-7L51.2,88.2L36.4,73.3l-19.7,7c-3.1,1.1-5.5,3.8-6.2,7.1l-5.7,27c-0.6,2.7,1.1,5.3,3.8,5.9   c2.7,0.6,5.3-1.1,5.9-3.8L20,89.7l13.8-4.9l17.4,17.4L68.7,84.8z"/><path fill="#dbdbdb" d="M128,189.5c9.9,0,18.4-7.1,20.3-16.8l2.5-12.7c0.8-6.2-1-12.4-5.1-17.1c-4.1-4.7-10-7.4-16.2-7.4h-2.9   c-6.2,0-12.1,2.7-16.2,7.4c-4.1,4.7-6,10.9-5.1,17.4l2.4,12.4v0C109.6,182.4,118.1,189.5,128,189.5z M117.8,149.5   c2.2-2.5,5.4-4,8.8-4h2.9c3.4,0,6.5,1.4,8.8,4c2.2,2.5,3.2,5.9,2.8,8.9l-2.4,12.4c-1,5.1-5.4,8.7-10.6,8.7s-9.6-3.7-10.6-8.7   l-2.4-12.1C114.6,155.4,115.6,152,117.8,149.5z"/><path fill="#dbdbdb" d="M168.8,211.7c-0.7-3.3-3.1-6-6.2-7.1l-19.7-7L128,212.4l-14.8-14.8l-19.7,7c-3.1,1.1-5.5,3.8-6.2,7.1l-5.7,27   c-0.6,2.7,1.1,5.3,3.8,5.9c2.7,0.6,5.3-1.1,5.9-3.8l5.5-26.8l13.8-4.9l17.4,17.4l17.4-17.4l13.6,4.7l5.7,27   c0.5,2.3,2.6,3.9,4.9,3.9c0.3,0,0.7,0,1-0.1c2.7-0.6,4.4-3.2,3.8-5.9L168.8,211.7z"/><path fill="#dbdbdb" d="M213.4,133.5c-2.8-0.3-5.2,1.7-5.4,4.5c-2,20.7-11.9,39.5-27.7,53c-2.1,1.8-2.3,4.9-0.6,7c1,1.2,2.4,1.7,3.8,1.7   c1.1,0,2.3-0.4,3.2-1.2c17.8-15.2,28.9-36.3,31.2-59.6C218.1,136.2,216.1,133.8,213.4,133.5z"/><path fill="#dbdbdb" d="M48.1,138c-0.3-2.7-2.7-4.7-5.4-4.5c-2.7,0.3-4.7,2.7-4.5,5.4c2.3,23.3,13.4,44.5,31.2,59.6c0.9,0.8,2.1,1.2,3.2,1.2   c1.4,0,2.8-0.6,3.8-1.8c1.8-2.1,1.5-5.2-0.6-7C60,177.5,50.1,158.7,48.1,138z"/><path fill="#dbdbdb" d="M101.7,54.1c16.7-5.9,35.9-5.9,52.7,0c0.5,0.2,1.1,0.3,1.7,0.3c2,0,4-1.3,4.7-3.3c0.9-2.6-0.4-5.4-3-6.3   c-18.9-6.7-40.4-6.7-59.3,0c-2.6,0.9-3.9,3.8-3,6.3C96.2,53.7,99.1,55,101.7,54.1z"/></g></svg>